<?xml version="1.0" encoding="utf-8"?>
<!-- Generator: Adobe Illustrator 22.0.1, SVG Export Plug-In . SVG Version: 6.00 Build 0)  -->
<svg version="1.1" xmlns="http://www.w3.org/2000/svg" xmlns:xlink="http://www.w3.org/1999/xlink" x="0px" y="0px"
	 viewBox="0 0 600 600" style="enable-background:new 0 0 600 600;" xml:space="preserve">
<style type="text/css">
	.st0{fill:none;stroke:#CFB8F6;stroke-width:7;stroke-miterlimit:10;}
</style>
<g id="Слой_1">
</g>
<g id="Слой_2">
	<g>
		<path class="st0" d="M103,99c16.4,0,16.4,16,32.8,16c16.4,0,16.4-16,32.8-16c16.4,0,16.4,16,32.8,16c16.4,0,16.4-16,32.8-16
			s16.4,16,32.8,16"/>
	</g>
	<g>
		<path class="st0" d="M102,123.5c16.4,0,16.4,16,32.8,16c16.4,0,16.4-16,32.8-16c16.4,0,16.4,16,32.8,16c16.4,0,16.4-16,32.8-16
			s16.4,16,32.8,16"/>
	</g>
	<g>
		<path class="st0" d="M103,147.5c16.4,0,16.4,16,32.8,16c16.4,0,16.4-16,32.8-16c16.4,0,16.4,16,32.8,16c16.4,0,16.4-16,32.8-16
			s16.4,16,32.8,16"/>
	</g>
</g>
</svg>
