<?xml version="1.0" encoding="utf-8"?>
<!-- Generator: Adobe Illustrator 22.0.1, SVG Export Plug-In . SVG Version: 6.00 Build 0)  -->
<svg version="1.1" id="Слой_1" xmlns="http://www.w3.org/2000/svg" xmlns:xlink="http://www.w3.org/1999/xlink" x="0px" y="0px"
	 viewBox="0 0 50 50" style="enable-background:new 0 0 50 50;" xml:space="preserve">
<style type="text/css">
	.st0{fill:#3E61B2;}
	.st1{fill:none;stroke:#FFFFFF;stroke-width:0.75;stroke-miterlimit:10;}
	.st2{opacity:0.3;fill:#F9F9F9;}
	.st3{fill:#F9F9F9;}
</style>
<path class="st0" d="M27,33H15c-1.7,0-3-1.3-3-3V17c0-1.7,1.3-3,3-3h12c1.7,0,3,1.3,3,3v13C30,31.7,28.7,33,27,33z"/>
<path class="st1" d="M25.5,31.3h-9c-1.7,0-3-1.3-3-3v-9.8c0-1.7,1.3-3,3-3h9c1.7,0,3,1.3,3,3v9.8C28.5,30,27.2,31.3,25.5,31.3z"/>
<path class="st2" d="M27,14H15c-1.7,0-3,1.3-3,3v4.3c2.4,1.7,5.6,2.7,9,2.7s6.6-1,9-2.7V17C30,15.3,28.7,14,27,14z"/>
<g>
	<path class="st3" d="M25.1,17.7v1.7c-0.5,0-0.7,0-0.8,0c-0.4,0-0.7,0.1-0.8,0.2c-0.1,0.1-0.2,0.3-0.2,0.7v0.7h1.6v1.5h-1.6V29H21
		v-6.7h-1.3v-1.5H21v-0.4c0-1,0.2-1.7,0.7-2.1c0.4-0.4,1.2-0.6,2.2-0.6c0.1,0,0.2,0,0.4,0c0.1,0,0.3,0,0.4,0
		C24.9,17.6,25,17.7,25.1,17.7z"/>
</g>
</svg>
