<?xml version="1.0" encoding="utf-8"?>
<!-- Generator: Adobe Illustrator 22.0.1, SVG Export Plug-In . SVG Version: 6.00 Build 0)  -->
<svg version="1.1" xmlns="http://www.w3.org/2000/svg" xmlns:xlink="http://www.w3.org/1999/xlink" x="0px" y="0px"
	 viewBox="0 0 150 50" style="enable-background:new 0 0 150 50;" xml:space="preserve">
<style type="text/css">
	.st0{fill:#7B519D;}
	.st1{fill:#FFFFFF;}
	.st2{fill:#FCFCFC;}
</style>
<g id="Слой_1">
	<g>
		<path class="st0" d="M142,35H9c-1.7,0-3-1.3-3-3V19c0-1.7,1.3-3,3-3h133c1.7,0,3,1.3,3,3v13C145,33.7,143.7,35,142,35z"/>
	</g>
	<g>
		<path class="st1" d="M21.4,28.6h-0.7v-2.7c-0.4,0.2-0.8,0.3-1.1,0.3c-0.3,0.1-0.6,0.1-0.9,0.1c-0.6,0-1.1-0.1-1.4-0.4
			c-0.3-0.3-0.5-0.7-0.5-1.2v-2.6h0.7v2.5c0,0.4,0.1,0.6,0.3,0.8c0.2,0.2,0.5,0.3,0.9,0.3c0.3,0,0.6,0,0.8-0.1
			c0.3,0,0.6-0.1,1.1-0.3v-3.1h0.7V28.6z"/>
		<path class="st1" d="M23.7,23.8v3.1l0,0.8l0,0.3l2.6-4.1h0.9v4.8h-0.7v-2.9l0-0.6l0-0.6l-2.6,4.1H23v-4.8H23.7z"/>
		<path class="st1" d="M32,24.4h-1.6v4.2h-0.7v-4.2h-1.5v-0.6H32V24.4z"/>
		<path class="st1" d="M35.9,28.6l-0.1-0.7h0c-0.2,0.3-0.5,0.5-0.7,0.6c-0.2,0.1-0.5,0.2-0.9,0.2c-0.5,0-0.9-0.1-1.1-0.4
			s-0.4-0.6-0.4-1.1c0-1,0.8-1.5,2.3-1.5l0.8,0v-0.3c0-0.4-0.1-0.7-0.2-0.8c-0.2-0.2-0.4-0.3-0.8-0.3c-0.4,0-0.9,0.1-1.4,0.4
			l-0.2-0.6c0.2-0.1,0.5-0.2,0.8-0.3s0.6-0.1,0.9-0.1c0.6,0,1,0.1,1.3,0.4c0.3,0.3,0.4,0.7,0.4,1.2v3.3H35.9z M34.2,28.1
			c0.5,0,0.8-0.1,1.1-0.4c0.3-0.2,0.4-0.6,0.4-1v-0.4l-0.7,0c-0.6,0-1,0.1-1.3,0.3c-0.3,0.2-0.4,0.4-0.4,0.7c0,0.3,0.1,0.5,0.2,0.6
			S34,28.1,34.2,28.1z"/>
		<path class="st1" d="M38.6,23.8v3.1l0,0.8l0,0.3l2.6-4.1h0.9v4.8h-0.7v-2.9l0-0.6l0-0.6l-2.6,4.1h-0.9v-4.8H38.6z M40,23.1
			c-0.5,0-0.9-0.1-1.2-0.3s-0.4-0.6-0.4-1h0.7c0,0.3,0.1,0.5,0.2,0.6s0.4,0.2,0.7,0.2c0.3,0,0.5-0.1,0.7-0.2
			c0.1-0.1,0.2-0.3,0.3-0.6h0.7c0,0.5-0.2,0.8-0.4,1C40.9,23,40.5,23.1,40,23.1z"/>
		<path class="st1" d="M46.9,24.4h-1.6v4.2h-0.7v-4.2H43v-0.6h3.8V24.4z"/>
		<path class="st1" d="M49.9,28.7c-0.7,0-1.3-0.2-1.7-0.7c-0.4-0.4-0.6-1-0.6-1.8c0-0.8,0.2-1.4,0.6-1.8c0.4-0.5,0.9-0.7,1.5-0.7
			c0.6,0,1.1,0.2,1.4,0.6s0.5,0.9,0.5,1.6v0.5h-3.3c0,0.6,0.2,1,0.4,1.3s0.7,0.4,1.1,0.4c0.5,0,1-0.1,1.5-0.3v0.7
			c-0.3,0.1-0.5,0.2-0.7,0.2C50.5,28.7,50.2,28.7,49.9,28.7z M49.7,24.3c-0.4,0-0.7,0.1-0.9,0.4c-0.2,0.3-0.4,0.6-0.4,1h2.5
			c0-0.5-0.1-0.8-0.3-1.1C50.4,24.4,50.1,24.3,49.7,24.3z"/>
		<path class="st1" d="M56,23.8v2h2.7v-2h0.7v4.8h-0.7v-2.2H56v2.2h-0.7v-4.8H56z"/>
		<path class="st1" d="M63.9,28.6l-0.1-0.7h0c-0.2,0.3-0.5,0.5-0.7,0.6c-0.2,0.1-0.5,0.2-0.9,0.2c-0.5,0-0.9-0.1-1.1-0.4
			s-0.4-0.6-0.4-1.1c0-1,0.8-1.5,2.3-1.5l0.8,0v-0.3c0-0.4-0.1-0.7-0.2-0.8c-0.2-0.2-0.4-0.3-0.8-0.3c-0.4,0-0.9,0.1-1.4,0.4
			l-0.2-0.6c0.2-0.1,0.5-0.2,0.8-0.3s0.6-0.1,0.9-0.1c0.6,0,1,0.1,1.3,0.4c0.3,0.3,0.4,0.7,0.4,1.2v3.3H63.9z M62.2,28.1
			c0.5,0,0.8-0.1,1.1-0.4c0.3-0.2,0.4-0.6,0.4-1v-0.4l-0.7,0c-0.6,0-1,0.1-1.3,0.3c-0.3,0.2-0.4,0.4-0.4,0.7c0,0.3,0.1,0.5,0.2,0.6
			S62,28.1,62.2,28.1z"/>
		<path class="st1" d="M67.9,28.7c-0.7,0-1.2-0.2-1.6-0.6c-0.4-0.4-0.6-1-0.6-1.8c0-0.8,0.2-1.4,0.6-1.9c0.4-0.4,0.9-0.7,1.7-0.7
			c0.2,0,0.5,0,0.7,0.1s0.4,0.1,0.5,0.2l-0.2,0.6c-0.2-0.1-0.3-0.1-0.5-0.2s-0.4-0.1-0.5-0.1c-1,0-1.5,0.6-1.5,1.9
			c0,0.6,0.1,1,0.4,1.4s0.6,0.5,1.1,0.5c0.4,0,0.8-0.1,1.2-0.3v0.6C68.8,28.6,68.4,28.7,67.9,28.7z"/>
		<path class="st1" d="M76.5,25c0,0.3-0.1,0.6-0.3,0.7C76,25.9,75.8,26,75.4,26v0c0.4,0.1,0.7,0.2,0.9,0.4c0.2,0.2,0.3,0.4,0.3,0.8
			c0,0.4-0.2,0.8-0.5,1c-0.3,0.2-0.8,0.4-1.4,0.4h-2.1v-4.8h2.1C75.9,23.8,76.5,24.2,76.5,25z M75.8,25.1c0-0.2-0.1-0.4-0.3-0.5
			s-0.5-0.1-0.8-0.1h-1.4v1.4h1.2c0.5,0,0.8-0.1,1-0.2C75.7,25.5,75.8,25.3,75.8,25.1z M75.9,27.1c0-0.3-0.1-0.5-0.3-0.6
			c-0.2-0.1-0.5-0.2-1-0.2h-1.3V28h1.3C75.5,28,75.9,27.7,75.9,27.1z"/>
		<path class="st1" d="M83.9,25c0,0.3-0.1,0.6-0.3,0.7c-0.2,0.2-0.4,0.3-0.8,0.3v0c0.4,0.1,0.7,0.2,0.9,0.4c0.2,0.2,0.3,0.4,0.3,0.8
			c0,0.4-0.2,0.8-0.5,1c-0.3,0.2-0.8,0.4-1.4,0.4H80v-4.8h2.1C83.3,23.8,83.9,24.2,83.9,25z M83.2,25.1c0-0.2-0.1-0.4-0.3-0.5
			c-0.2-0.1-0.5-0.1-0.8-0.1h-1.4v1.4H82c0.5,0,0.8-0.1,1-0.2S83.2,25.3,83.2,25.1z M83.4,27.1c0-0.3-0.1-0.5-0.3-0.6
			c-0.2-0.1-0.5-0.2-1-0.2h-1.3V28h1.3C82.9,28,83.4,27.7,83.4,27.1z"/>
		<path class="st1" d="M88.1,28.6L88,27.9h0c-0.2,0.3-0.5,0.5-0.7,0.6c-0.2,0.1-0.5,0.2-0.9,0.2c-0.5,0-0.9-0.1-1.1-0.4
			c-0.3-0.2-0.4-0.6-0.4-1.1c0-1,0.8-1.5,2.3-1.5l0.8,0v-0.3c0-0.4-0.1-0.7-0.2-0.8c-0.2-0.2-0.4-0.3-0.8-0.3
			c-0.4,0-0.9,0.1-1.4,0.4l-0.2-0.6c0.2-0.1,0.5-0.2,0.8-0.3c0.3-0.1,0.6-0.1,0.9-0.1c0.6,0,1,0.1,1.3,0.4c0.3,0.3,0.4,0.7,0.4,1.2
			v3.3H88.1z M86.5,28.1c0.5,0,0.8-0.1,1.1-0.4c0.3-0.2,0.4-0.6,0.4-1v-0.4l-0.7,0c-0.6,0-1,0.1-1.3,0.3c-0.3,0.2-0.4,0.4-0.4,0.7
			c0,0.3,0.1,0.5,0.2,0.6C85.9,28,86.2,28.1,86.5,28.1z"/>
		<path class="st1" d="M90.8,23.8v3.1l0,0.8l0,0.3l2.6-4.1h0.9v4.8h-0.7v-2.9l0-0.6l0-0.6l-2.6,4.1h-0.9v-4.8H90.8z M92.2,23.1
			c-0.5,0-0.9-0.1-1.2-0.3c-0.3-0.2-0.4-0.6-0.4-1h0.7c0,0.3,0.1,0.5,0.2,0.6c0.1,0.1,0.4,0.2,0.7,0.2c0.3,0,0.5-0.1,0.7-0.2
			c0.1-0.1,0.2-0.3,0.3-0.6h0.7c0,0.5-0.2,0.8-0.4,1C93.1,23,92.7,23.1,92.2,23.1z"/>
		<path class="st1" d="M95.6,25.7c0-1.1,0.2-1.9,0.5-2.5s0.8-1,1.5-1.1c0.8-0.2,1.6-0.3,2.2-0.4l0.1,0.6c-1,0.2-1.7,0.3-2.2,0.4
			c-0.4,0.1-0.7,0.3-1,0.7c-0.2,0.4-0.3,0.9-0.3,1.5h0.1c0.2-0.2,0.4-0.4,0.7-0.6c0.3-0.1,0.6-0.2,0.9-0.2c0.6,0,1.1,0.2,1.4,0.6
			c0.3,0.4,0.5,0.9,0.5,1.6c0,0.8-0.2,1.3-0.6,1.8s-0.9,0.6-1.6,0.6c-0.7,0-1.2-0.3-1.6-0.8C95.8,27.4,95.6,26.6,95.6,25.7z
			 M97.8,28.1c0.9,0,1.3-0.6,1.3-1.7c0-1.1-0.4-1.6-1.2-1.6c-0.2,0-0.4,0-0.6,0.1c-0.2,0.1-0.4,0.2-0.6,0.4
			c-0.2,0.2-0.3,0.3-0.4,0.5c0,0.8,0.1,1.4,0.4,1.8S97.3,28.1,97.8,28.1z"/>
		<path class="st1" d="M103.3,28.7c-0.7,0-1.3-0.2-1.7-0.7c-0.4-0.4-0.6-1-0.6-1.8c0-0.8,0.2-1.4,0.6-1.8c0.4-0.5,0.9-0.7,1.5-0.7
			c0.6,0,1.1,0.2,1.4,0.6s0.5,0.9,0.5,1.6v0.5h-3.3c0,0.6,0.2,1,0.4,1.3c0.3,0.3,0.7,0.4,1.1,0.4c0.5,0,1-0.1,1.5-0.3v0.7
			c-0.3,0.1-0.5,0.2-0.7,0.2C103.9,28.7,103.6,28.7,103.3,28.7z M103.1,24.3c-0.4,0-0.7,0.1-0.9,0.4c-0.2,0.3-0.4,0.6-0.4,1h2.5
			c0-0.5-0.1-0.8-0.3-1.1C103.7,24.4,103.4,24.3,103.1,24.3z"/>
		<path class="st1" d="M108.5,28.7c-0.3,0-0.6-0.1-0.9-0.2c-0.3-0.1-0.5-0.3-0.7-0.5h-0.1c0,0.3,0.1,0.5,0.1,0.8v2h-0.7v-7h0.6
			l0.1,0.7h0c0.2-0.3,0.4-0.5,0.7-0.6c0.2-0.1,0.5-0.2,0.9-0.2c0.6,0,1.1,0.2,1.5,0.7c0.3,0.4,0.5,1,0.5,1.8c0,0.8-0.2,1.4-0.5,1.8
			C109.6,28.5,109.1,28.7,108.5,28.7z M108.4,24.3c-0.5,0-0.8,0.1-1.1,0.4c-0.2,0.3-0.3,0.7-0.3,1.3v0.2c0,0.7,0.1,1.2,0.3,1.5
			c0.2,0.3,0.6,0.4,1.1,0.4c0.4,0,0.7-0.2,1-0.5c0.2-0.3,0.4-0.8,0.4-1.4c0-0.6-0.1-1.1-0.4-1.4C109.2,24.5,108.8,24.3,108.4,24.3z"
			/>
		<path class="st1" d="M113.8,28.7c-0.7,0-1.3-0.2-1.7-0.7c-0.4-0.4-0.6-1-0.6-1.8c0-0.8,0.2-1.4,0.6-1.8c0.4-0.5,0.9-0.7,1.5-0.7
			c0.6,0,1.1,0.2,1.4,0.6s0.5,0.9,0.5,1.6v0.5h-3.3c0,0.6,0.2,1,0.4,1.3c0.3,0.3,0.7,0.4,1.1,0.4c0.5,0,1-0.1,1.5-0.3v0.7
			c-0.3,0.1-0.5,0.2-0.7,0.2C114.4,28.7,114.1,28.7,113.8,28.7z M113.6,24.3c-0.4,0-0.7,0.1-0.9,0.4c-0.2,0.3-0.4,0.6-0.4,1h2.5
			c0-0.5-0.1-0.8-0.3-1.1C114.3,24.4,114,24.3,113.6,24.3z"/>
	</g>
	<path class="st2" d="M131.9,27.1c0,0,0.3,0,0.4-0.2l0.3-0.4c0.1-0.2,0.5-0.3,0.8-0.1c0.5,0.3,1,0.7,1.5,1c0.2,0.2,0.3,0.5,0.1,0.8
		l0,0c-0.2,0.3-0.4,0.5-0.6,0.8l0,0c-0.3,0.2-0.6,0.4-1,0.3l0,0c-0.7-0.2-2.2-1-3.2-1.8c-1.6-1.3-2.8-3.4-3.1-4.6l0,0
		c-0.1-0.4,0-0.7,0.3-1l0,0c0.2-0.3,0.5-0.5,0.8-0.6l0,0c0.3-0.2,0.6-0.1,0.8,0.1c0.2,0.3,0.7,0.9,1,1.5c0.2,0.3,0.1,0.7-0.1,0.8
		l-0.4,0.3c-0.2,0.2-0.2,0.4-0.2,0.4S129.8,26.5,131.9,27.1z M135.2,25.3c-0.1,0-0.2-0.1-0.2-0.2c0-1.2-0.4-2.2-1.1-2.9
		c-0.7-0.7-1.6-1.1-2.7-1.1c-0.1,0-0.2-0.1-0.2-0.2c0-0.1,0.1-0.2,0.2-0.2h0c1.2,0,2.2,0.4,3,1.2c0.8,0.8,1.2,1.9,1.2,3.2
		C135.4,25.2,135.3,25.3,135.2,25.3C135.2,25.3,135.2,25.3,135.2,25.3z M134.2,24.9L134.2,24.9c-0.1,0-0.2-0.1-0.2-0.2
		c0-0.7-0.2-1.3-0.6-1.7c-0.4-0.5-1-0.7-1.8-0.8c-0.1,0-0.2-0.1-0.2-0.2c0-0.1,0.1-0.2,0.2-0.2c0.9,0.1,1.6,0.4,2.1,0.9
		c0.5,0.5,0.7,1.2,0.7,2C134.4,24.8,134.3,24.9,134.2,24.9z M133.1,24.5c-0.1,0-0.2-0.1-0.2-0.2c0-0.7-0.4-1-1-1.1
		c-0.1,0-0.2-0.1-0.2-0.2c0-0.1,0.1-0.2,0.2-0.2c0.9,0,1.4,0.6,1.4,1.5C133.3,24.4,133.2,24.5,133.1,24.5
		C133.1,24.5,133.1,24.5,133.1,24.5z M137.7,26.9c-0.4,3.3-2.8,3.5-3.3,3.6c-0.2,0.1-1.9,0.5-4.2,0.4c0,0-1.6,2-2.2,2.5
		c-0.1,0.1-0.2,0.1-0.2,0.1c-0.1,0-0.1-0.1-0.1-0.3l0-2.7v0c-3.2-0.9-3-4.3-3-6c0-1.8,0.4-3.2,1.3-4.2c1.8-1.6,5.4-1.4,5.4-1.4
		c3.1,0,4.5,0.9,4.9,1.2C137.5,21.2,138.1,23.5,137.7,26.9z M137.3,19.4c-0.4-0.4-2-1.6-5.7-1.6c0,0-4.3-0.3-6.4,1.7
		c-1.2,1.2-1.6,2.9-1.6,5c0,2.1-0.1,6.1,3.7,7.1l0,0l0,1.6c0,0,0,0.7,0.4,0.8c0.5,0.2,0.8-0.3,1.3-0.9c0.3-0.3,0.7-0.7,0.9-1.1
		c2.6,0.2,4.6-0.3,4.8-0.4c0.5-0.2,3.5-0.6,4-4.5C139.3,23.1,138.6,20.5,137.3,19.4z"/>
</g>
<g id="Слой_2">
</g>
</svg>
