<?xml version="1.0" encoding="utf-8"?>
<!-- Generator: Adobe Illustrator 22.0.1, SVG Export Plug-In . SVG Version: 6.00 Build 0)  -->
<svg version="1.1" xmlns="http://www.w3.org/2000/svg" xmlns:xlink="http://www.w3.org/1999/xlink" x="0px" y="0px"
	 viewBox="0 0 50 50" style="enable-background:new 0 0 50 50;" xml:space="preserve">
<style type="text/css">
	.st0{fill:url(#SVGID_1_);}
	.st1{fill:none;stroke:#FFFFFF;stroke-width:0.75;stroke-miterlimit:0;}
	.st2{fill:#FFFFFF;}
</style>
<g id="Слой_1">
	
		<radialGradient id="SVGID_1_" cx="19.8743" cy="37.2764" r="28.6699" gradientTransform="matrix(0.5917 -0.8061 0.6546 0.4805 -16.2865 35.3879)" gradientUnits="userSpaceOnUse">
		<stop  offset="3.333334e-02" style="stop-color:#F9ED32"/>
		<stop  offset="0.6462" style="stop-color:#EE2A7B"/>
		<stop  offset="1" style="stop-color:#002AFF"/>
	</radialGradient>
	<path class="st0" d="M31.4,35.3h-12c-1.7,0-3-1.3-3-3v-13c0-1.7,1.3-3,3-3h12c1.7,0,3,1.3,3,3v13C34.4,33.9,33.1,35.3,31.4,35.3z"
		/>
	<path class="st1" d="M29.1,32.5h-7.5c-1.6,0-2.9-1.3-2.9-2.9V22c0-1.6,1.3-2.9,2.9-2.9h7.5c1.6,0,2.9,1.3,2.9,2.9v7.5
		C32.1,31.1,30.8,32.5,29.1,32.5z"/>
	<circle class="st1" cx="25.4" cy="25.8" r="3"/>
	<circle class="st2" cx="29.3" cy="21.8" r="0.8"/>
</g>
<g id="Слой_2">
</g>
</svg>
