<?xml version="1.0" encoding="utf-8"?>
<!-- Generator: Adobe Illustrator 22.0.1, SVG Export Plug-In . SVG Version: 6.00 Build 0)  -->
<svg version="1.1" xmlns="http://www.w3.org/2000/svg" xmlns:xlink="http://www.w3.org/1999/xlink" x="0px" y="0px"
	 viewBox="0 0 46.7 46.7" style="enable-background:new 0 0 46.7 46.7;" xml:space="preserve">
<style type="text/css">
	.st0{fill:#FCFCDE;}
	.st1{fill:#C3D4E7;}
</style>
<g id="Слой_2">
	<circle class="st0" cx="23.5" cy="23.2" r="22.7"/>
</g>
<g id="Capa_1">
	<g>
		<g>
			<g>
				<path class="st1" d="M26.4,31.6c-8.8,0-18.4-0.1-24.9-3.1c0.5,2.1,1.3,4,2.3,5.8c5.2,2.3,14.1,2.4,22.3,2.4
					c5.6,0,10.7,0.1,15,0.7c1.1-1.3,2-2.8,2.8-4.4C40,31.7,32.6,31.7,26.4,31.6z"/>
				<path class="st1" d="M27.8,14.2c6.4,0,12.3,0.1,16.9,1.1c-0.8-2-1.8-3.9-3.1-5.6c-3.9-0.5-9-0.5-13.4-0.6C21,9,13.4,9,7.3,7.4
					c-1.1,1.1-2.1,2.4-3,3.8C9.3,14.1,19,14.1,27.8,14.2z"/>
				<path class="st1" d="M28.1,3.2c2.1,0,4.1,0,6.1,0.1C31,1.6,27.4,0.6,23.5,0.6c-3.4,0-6.7,0.8-9.6,2.1
					C18.3,3.2,23.4,3.2,28.1,3.2z"/>
				<path class="st1" d="M26,42.5c-5.1,0-10.4-0.1-15.3-0.6c3.6,2.5,8,3.9,12.7,3.9c4.2,0,8.1-1.1,11.4-3.1
					C32,42.6,28.9,42.6,26,42.5z"/>
				<path class="st1" d="M45.7,27.6c0.3-1.4,0.4-2.9,0.4-4.4c0-0.5,0-1-0.1-1.4C42.5,20,34.4,20,27.7,20c-9.2,0-19.3-0.1-25.8-3.5
					c-0.5,1.5-0.8,3.1-0.9,4.7c3.8,4.5,15.3,4.6,25.5,4.7C34,25.9,40.9,25.9,45.7,27.6z"/>
			</g>
		</g>
	</g>
</g>
</svg>
